<svg width="12" height="13" viewBox="0 0 12 13" fill="none" xmlns="http://www.w3.org/2000/svg">
<path d="M5.53125 0.875H6.46875C6.55208 0.875 6.59375 0.916667 6.59375 1V12C6.59375 12.0833 6.55208 12.125 6.46875 12.125H5.53125C5.44792 12.125 5.40625 12.0833 5.40625 12V1C5.40625 0.916667 5.44792 0.875 5.53125 0.875Z" fill="#5AC3EB"/>
<path d="M0.75 5.90625H11.25C11.3333 5.90625 11.375 5.94792 11.375 6.03125V6.96875C11.375 7.05208 11.3333 7.09375 11.25 7.09375H0.75C0.666667 7.09375 0.625 7.05208 0.625 6.96875V6.03125C0.625 5.94792 0.666667 5.90625 0.75 5.90625Z" fill="#5AC3EB"/>
</svg>
