<svg width="132" height="28" viewBox="0 0 132 28" fill="none" xmlns="http://www.w3.org/2000/svg">
<path fill-rule="evenodd" clip-rule="evenodd" d="M15.1481 13.0478H21.0458L25.1958 19.3028L36.9165 0L41.0106 14.1443L36.4048 10.5928L25.1965 27.9557L15.1481 13.0478ZM13.1186 25.6398L0 5.17223H26.2372L23.7308 9.08258L8.18486 9.08258L15.8957 21.307L13.1186 25.6398Z" fill="#6EACC5"/>
<path fill-rule="evenodd" clip-rule="evenodd" d="M131.561 24.3887C131.854 23.6923 132 22.9295 132 22.1002V19.8782C132 19.0552 131.854 18.2955 131.561 17.5992C131.275 16.8965 130.878 16.2951 130.369 15.795C129.86 15.2885 129.256 14.8929 128.557 14.608C127.857 14.3231 127.098 14.1807 126.277 14.1807H119.582C119.404 14.1807 119.238 14.2123 119.086 14.2756C118.933 14.3389 118.8 14.4276 118.685 14.5415C118.577 14.6555 118.491 14.7884 118.428 14.9403C118.364 15.0923 118.332 15.2537 118.332 15.4246V26.5537C118.332 26.731 118.364 26.8956 118.428 27.0475C118.491 27.1994 118.577 27.3324 118.685 27.4463C118.8 27.5539 118.933 27.6394 119.086 27.7027C119.238 27.766 119.404 27.7977 119.582 27.7977H120.796V23.5435H120.812V16.6496H126.277C126.761 16.6496 127.199 16.7287 127.593 16.887C127.994 17.0389 128.337 17.2573 128.624 17.5422C128.91 17.8207 129.129 18.1594 129.282 18.5582C129.441 18.9571 129.52 19.397 129.52 19.8782V22.1002C129.52 22.5876 129.441 23.0308 129.282 23.4296C129.129 23.8221 128.91 24.1608 128.624 24.4456C128.337 24.7242 127.994 24.9426 127.593 25.1009C127.199 25.2528 126.761 25.3288 126.277 25.3288H123.238V27.7977H126.277C127.098 27.7977 127.857 27.6552 128.557 27.3704C129.256 27.0855 129.86 26.693 130.369 26.1929C130.878 25.6864 131.275 25.085 131.561 24.3887Z" fill="white"/>
<path d="M115.862 18.7576C115.862 19.3211 115.792 19.8243 115.652 20.2675C115.512 20.7106 115.322 21.1031 115.08 21.445C114.845 21.7805 114.571 22.0685 114.26 22.3091C113.948 22.5496 113.621 22.7491 113.277 22.9073C112.94 23.0593 112.597 23.17 112.247 23.2397C111.904 23.3093 111.58 23.3441 111.274 23.3441L116.453 27.7977H112.619L107.45 23.3441H105.666V20.8752H111.274C111.586 20.8499 111.869 20.7866 112.123 20.6853C112.384 20.5777 112.606 20.4352 112.791 20.258C112.982 20.0807 113.128 19.8687 113.23 19.6218C113.331 19.3685 113.382 19.0805 113.382 18.7576V17.2003C113.382 17.0611 113.363 16.9566 113.325 16.887C113.293 16.811 113.249 16.7572 113.191 16.7255C113.141 16.6876 113.083 16.6654 113.02 16.6591C112.963 16.6527 112.908 16.6496 112.858 16.6496H104.674V27.7977H102.194V15.4246C102.194 15.2537 102.226 15.0923 102.29 14.9403C102.353 14.7884 102.439 14.6555 102.547 14.5415C102.662 14.4276 102.795 14.3389 102.948 14.2756C103.1 14.2123 103.266 14.1807 103.444 14.1807H112.858C113.411 14.1807 113.878 14.282 114.26 14.4845C114.641 14.6808 114.95 14.9308 115.185 15.2347C115.426 15.5322 115.598 15.8551 115.7 16.2033C115.808 16.5515 115.862 16.8775 115.862 17.1813V18.7576Z" fill="white"/>
<path d="M99.3044 27.7977H96.8246V24.4551H88.107V27.7977H85.6272V20.9892C85.6272 19.9953 85.7989 19.0805 86.1422 18.2449C86.4856 17.4092 86.9625 16.6907 87.5729 16.0893C88.1833 15.4879 88.905 15.0195 89.738 14.6839C90.571 14.3484 91.4802 14.1807 92.4658 14.1807H98.055C98.2266 14.1807 98.3888 14.2123 98.5414 14.2756C98.694 14.3389 98.8275 14.4276 98.942 14.5415C99.0564 14.6555 99.1454 14.7884 99.209 14.9403C99.2726 15.0923 99.3044 15.2537 99.3044 15.4246V27.7977ZM88.107 21.9862H96.8246V16.6496H92.4658C92.3895 16.6496 92.2274 16.6622 91.9794 16.6876C91.7377 16.7066 91.4548 16.7604 91.1305 16.849C90.8126 16.9376 90.4756 17.0737 90.1195 17.2573C89.7634 17.4409 89.436 17.6941 89.1371 18.017C88.8383 18.3398 88.5903 18.745 88.3932 19.2324C88.2024 19.7136 88.107 20.2991 88.107 20.9892V21.9862Z" fill="white"/>
<path d="M83.6434 14.9213C83.7388 15.1429 83.7674 15.3771 83.7292 15.624C83.6911 15.8646 83.5893 16.0703 83.424 16.2413L75.2406 25.3288H83.6243V27.7977H72.446C72.2044 27.7977 71.9787 27.7312 71.7688 27.5983C71.5653 27.459 71.4127 27.2786 71.311 27.057C71.2029 26.8354 71.1679 26.6044 71.2061 26.3638C71.2506 26.1232 71.3523 25.9143 71.5113 25.7371L79.7138 16.6496H71.311V14.1807H82.5084C82.75 14.1807 82.9726 14.2503 83.176 14.3896C83.3859 14.5225 83.5416 14.6998 83.6434 14.9213Z" fill="white"/>
<path fill-rule="evenodd" clip-rule="evenodd" d="M69.0055 14.2251L66.469 14.2251L69.0055 16.5166L69.0055 14.2251ZM66.469 28.0004H69.0055V18.85L66.469 16.5585V28.0004Z" fill="white"/>
<path d="M64.4152 14.1807L62.1261 26.943C62.0753 27.1963 61.9608 27.4147 61.7828 27.5983C61.6047 27.7818 61.3886 27.899 61.1342 27.9496C60.8735 27.9939 60.6255 27.9654 60.3903 27.8641C60.1614 27.7629 59.9801 27.6046 59.8466 27.3894L55.3066 19.9636L50.7571 27.3894C50.649 27.5729 50.4996 27.7154 50.3088 27.8167C50.1244 27.918 49.9241 27.9686 49.7079 27.9686C49.4091 27.9686 49.1452 27.8736 48.9163 27.6837C48.6874 27.4938 48.5475 27.2469 48.4966 26.943L46.1885 14.1807H48.7065L50.347 23.1732L54.2575 16.9629C54.3656 16.7794 54.5118 16.6369 54.6962 16.5356C54.887 16.4343 55.0904 16.3837 55.3066 16.3837C55.5228 16.3837 55.7231 16.4343 55.9075 16.5356C56.0919 16.6369 56.2445 16.7794 56.3653 16.9629L60.2567 23.1732L61.8972 14.1807H64.4152Z" fill="white"/>
</svg>
