<svg xmlns="http://www.w3.org/2000/svg" width="15" height="17" viewBox="0 0 15 17" >
<path d="M13.8117 9.39024C13.96 9.30246 14.0847 9.16768 14.1719 9.00098C14.259 8.83428 14.3052 8.64224 14.3052 8.44633C14.3052 8.25042 14.259 8.05837 14.1719 7.89167C14.0847 7.72497 13.96 7.5902 13.8117 7.50242L1.29412 0.111603C1.13892 0.0198972 0.964462 -0.0164859 0.792044 0.0068916C0.619625 0.0302691 0.456695 0.112397 0.323129 0.243256C0.189562 0.374114 0.0911341 0.548048 0.0398502 0.743838C-0.0114327 0.939628 -0.0133543 1.14881 0.0343198 1.34587L1.312 6.62502C1.36545 6.84566 1.47831 7.03973 1.63352 7.17786C1.78872 7.31598 1.9778 7.39062 2.17214 7.3905L6.25913 7.3905C6.49626 7.3905 6.72368 7.50174 6.89136 7.69974C7.05904 7.89775 7.15324 8.1663 7.15324 8.44633C7.15324 8.72635 7.05904 8.9949 6.89136 9.19291C6.72368 9.39092 6.49626 9.50216 6.25913 9.50216L2.17214 9.50216C1.9778 9.50203 1.78872 9.57668 1.63351 9.7148C1.47831 9.85292 1.36545 10.047 1.312 10.2676L0.0352129 15.5468C-0.0125557 15.7438 -0.0107495 15.9529 0.0404133 16.1487C0.091575 16.3445 0.189883 16.5185 0.323345 16.6495C0.456807 16.7805 0.619656 16.8627 0.792033 16.8863C0.96441 16.9098 1.13887 16.8736 1.29412 16.7821L13.8117 9.3913L13.8117 9.39024Z"/>
</svg>